<?xml version="1.0" encoding="UTF-8"?>
<svg id="Layer_1" data-name="Layer 1" xmlns="http://www.w3.org/2000/svg" xmlns:xlink="http://www.w3.org/1999/xlink" viewBox="0 0 245 255.94">
  <defs>
    <style>
      .trackpad {
        fill:  #696d76;
      }

      .screen {
        fill: #282c34;
        stroke: #2f333d;
        stroke-width: 5px;
      }

      .screen, .schreib-text-background, .cls-4 {
        stroke-miterlimit: 10;
      }

      .schreib-text {
        fill: #fff;
      }

      .schreib-text-background {
        fill: #21252a;
        stroke: #696d76;
        stroke-width: 3px;
      }

      .drop-shadow {
        filter: url(#drop-shadow-1);
      }

      .keyboard-border {
        fill: #1f2327;
      }

      .keyboard {
        fill: #2f333d;
      }

      .key {
        fill: #696d76;
      }

      .root-symbol {
        fill: #696d76;
      }
    </style>
  </defs>
  <g id="keyboard">
    <path id="keyboard-shading" class="keyboard-border" d="M236.58,162.85L95.12,241.21c-1.81,1-4.02,.97-5.7-.08L4.6,187.91c-4.44-2.79-1.67-9.73,4.02-10.2l227.84-18.92,.12,4.06Z"/>
    <path id="keyboard-top" class="keyboard" d="M234.62,160.49L95.97,238.44c-2.19,1.23-5.54,1.24-7.48,.02L3.89,185.34c-1.86-1.17-1.63-3.09,.51-4.3L139.87,104.66c2.15-1.21,5.46-1.28,7.39-.14l87.7,51.58c2.01,1.18,1.86,3.15-.34,4.38Z"/>
    <g id="buttons">
      <g>
        <path class="key" d="M49.23,183.07l-6.24,3.52c-.43,.24-1.09,.25-1.46,.01l-5.45-3.4c-.38-.23-.33-.62,.1-.86l6.23-3.51c.43-.24,1.08-.25,1.46-.02l5.47,3.39c.38,.23,.33,.62-.1,.86Z"/>
        <path class="key" d="M59.37,177.35l-6.24,3.52c-.43,.24-1.09,.25-1.46,.01l-5.47-3.39c-.38-.23-.33-.62,.1-.86l6.23-3.51c.43-.24,1.09-.25,1.46-.02l5.48,3.39c.38,.23,.34,.62-.09,.86Z"/>
        <path class="key" d="M69.6,171.59l-6.24,3.52c-.43,.24-1.09,.25-1.47,.02l-5.48-3.38c-.38-.23-.34-.62,.09-.86l6.23-3.51c.43-.24,1.09-.25,1.46-.02l5.49,3.38c.38,.23,.34,.62-.09,.86Z"/>
        <path class="key" d="M79.74,165.88l-6.25,3.52c-.43,.24-1.09,.25-1.47,.02l-5.5-3.38c-.38-.23-.34-.62,.09-.86l6.23-3.51c.43-.24,1.09-.25,1.47-.02l5.51,3.37c.38,.23,.34,.62-.09,.86Z"/>
        <path class="key" d="M89.51,160.37l-6.25,3.52c-.43,.24-1.09,.25-1.47,.02l-5.51-3.37c-.38-.23-.34-.62,.09-.86l6.24-3.51c.43-.24,1.09-.25,1.47-.02l5.52,3.37c.38,.23,.34,.62-.09,.86Z"/>
        <path class="key" d="M99.28,154.86l-6.25,3.52c-.43,.24-1.09,.25-1.47,.02l-5.52-3.36c-.38-.23-.34-.62,.09-.86l6.24-3.52c.43-.24,1.09-.25,1.47-.02l5.53,3.36c.38,.23,.34,.62-.09,.86Z"/>
        <path class="key" d="M109.52,149.1l-6.25,3.52c-.43,.24-1.09,.25-1.47,.02l-5.54-3.36c-.38-.23-.34-.62,.09-.86l6.24-3.52c.43-.24,1.09-.25,1.47-.02l5.55,3.35c.38,.23,.34,.62-.09,.86Z"/>
        <path class="key" d="M119.68,143.37l-6.25,3.52c-.43,.24-1.09,.25-1.48,.02l-5.55-3.35c-.38-.23-.34-.61,.09-.86l6.24-3.52c.43-.24,1.09-.25,1.47-.02l5.56,3.34c.38,.23,.35,.62-.09,.86Z"/>
        <path class="key" d="M129.76,137.7l-6.25,3.52c-.43,.24-1.09,.25-1.48,.02l-5.57-3.34c-.38-.23-.35-.61,.09-.86l6.24-3.52c.43-.24,1.09-.25,1.48-.02l5.58,3.34c.39,.23,.35,.62-.08,.86Z"/>
        <path class="key" d="M140.01,131.92l-6.26,3.52c-.43,.24-1.09,.25-1.48,.02l-5.58-3.34c-.38-.23-.35-.61,.08-.86l6.24-3.52c.43-.24,1.09-.25,1.48-.02l5.59,3.33c.39,.23,.35,.61-.08,.86Z"/>
        <path class="key" d="M150.17,126.19l-6.26,3.53c-.43,.24-1.1,.25-1.48,.02l-5.59-3.33c-.39-.23-.35-.61,.08-.86l6.25-3.52c.43-.24,1.09-.25,1.48-.03l5.61,3.32c.39,.23,.35,.61-.08,.86Z"/>
        <path class="key" d="M61.09,189.89l-6.26,3.52c-.43,.24-1.09,.25-1.47,.01l-5.49-3.42c-.38-.24-.34-.62,.1-.87l6.25-3.52c.43-.24,1.09-.25,1.47-.01l5.5,3.41c.38,.24,.34,.62-.09,.87Z"/>
        <path class="key" d="M71.26,184.16l-6.26,3.53c-.43,.24-1.09,.25-1.47,.01l-5.5-3.41c-.38-.24-.34-.62,.09-.87l6.25-3.52c.43-.24,1.09-.25,1.47-.02l5.51,3.4c.38,.24,.34,.62-.09,.87Z"/>
        <path class="key" d="M81.51,178.38l-6.26,3.53c-.43,.24-1.09,.25-1.47,.01l-5.51-3.4c-.38-.23-.34-.62,.09-.86l6.25-3.52c.43-.24,1.09-.25,1.47-.02l5.52,3.4c.38,.23,.34,.62-.09,.87Z"/>
        <path class="key" d="M91.69,172.65l-6.26,3.53c-.43,.24-1.09,.25-1.47,.02l-5.53-3.4c-.38-.23-.34-.62,.09-.86l6.25-3.52c.43-.24,1.09-.25,1.47-.02l5.54,3.39c.38,.23,.34,.62-.09,.87Z"/>
        <path class="key" d="M101.49,167.13l-6.27,3.53c-.43,.24-1.09,.25-1.48,.02l-5.54-3.39c-.38-.23-.34-.62,.09-.86l6.25-3.52c.43-.24,1.09-.25,1.47-.02l5.55,3.38c.38,.23,.34,.62-.09,.86Z"/>
        <path class="key" d="M111.29,161.61l-6.27,3.53c-.43,.24-1.09,.25-1.48,.02l-5.55-3.38c-.38-.23-.34-.62,.09-.86l6.26-3.52c.43-.24,1.09-.25,1.48-.02l5.57,3.38c.38,.23,.35,.62-.09,.86Z"/>
        <path class="key" d="M121.56,155.83l-6.27,3.53c-.43,.24-1.1,.25-1.48,.02l-5.57-3.38c-.38-.23-.34-.62,.09-.86l6.26-3.53c.43-.24,1.09-.25,1.48-.02l5.58,3.37c.39,.23,.35,.62-.09,.86Z"/>
        <path class="key" d="M131.75,150.09l-6.27,3.53c-.43,.24-1.1,.25-1.48,.02l-5.58-3.37c-.38-.23-.35-.62,.09-.86l6.26-3.53c.43-.24,1.1-.25,1.48-.02l5.59,3.36c.39,.23,.35,.62-.08,.86Z"/>
        <path class="key" d="M141.85,144.4l-6.27,3.53c-.43,.24-1.1,.25-1.48,.02l-5.6-3.36c-.39-.23-.35-.62,.08-.86l6.26-3.53c.43-.24,1.1-.25,1.48-.02l5.61,3.36c.39,.23,.35,.62-.08,.86Z"/>
        <path class="key" d="M152.13,138.61l-6.27,3.53c-.43,.24-1.1,.25-1.49,.02l-5.61-3.35c-.39-.23-.35-.62,.08-.86l6.26-3.53c.43-.24,1.1-.25,1.48-.02l5.62,3.35c.39,.23,.35,.62-.08,.86Z"/>
        <path class="key" d="M162.33,132.87l-6.28,3.53c-.43,.24-1.1,.25-1.49,.02l-5.63-3.35c-.39-.23-.35-.62,.08-.86l6.26-3.53c.43-.24,1.1-.25,1.49-.02l5.64,3.34c.39,.23,.35,.62-.08,.86Z"/>
        <path class="key" d="M72.55,197.01l-6.28,3.53c-.43,.24-1.09,.25-1.47,.01l-5.52-3.44c-.38-.24-.34-.63,.09-.87l6.27-3.53c.43-.24,1.09-.25,1.47-.01l5.53,3.43c.38,.24,.34,.63-.09,.87Z"/>
        <path class="key" d="M82.75,191.26l-6.28,3.53c-.43,.24-1.09,.25-1.48,.01l-5.53-3.43c-.38-.24-.34-.63,.09-.87l6.27-3.53c.43-.24,1.09-.25,1.47-.01l5.54,3.42c.38,.24,.34,.63-.09,.87Z"/>
        <path class="key" d="M93.04,185.47l-6.28,3.54c-.43,.24-1.1,.25-1.48,.01l-5.54-3.42c-.38-.24-.34-.62,.09-.87l6.27-3.53c.43-.24,1.09-.25,1.48-.01l5.55,3.42c.38,.24,.34,.63-.09,.87Z"/>
        <path class="key" d="M103.24,179.72l-6.28,3.54c-.43,.24-1.1,.25-1.48,.01l-5.56-3.41c-.38-.24-.34-.62,.09-.87l6.27-3.53c.43-.24,1.1-.25,1.48-.02l5.57,3.41c.38,.24,.35,.62-.09,.87Z"/>
        <path class="key" d="M113.07,174.19l-6.28,3.54c-.43,.24-1.1,.25-1.48,.02l-5.57-3.41c-.38-.23-.34-.62,.09-.87l6.27-3.53c.43-.24,1.1-.25,1.48-.02l5.58,3.4c.39,.24,.35,.62-.09,.87Z"/>
        <path class="key" d="M122.9,168.66l-6.29,3.54c-.43,.24-1.1,.25-1.48,.02l-5.59-3.4c-.39-.23-.35-.62,.09-.87l6.27-3.53c.43-.24,1.1-.25,1.48-.02l5.6,3.4c.39,.23,.35,.62-.09,.87Z"/>
        <path class="key" d="M133.2,162.86l-6.29,3.54c-.43,.24-1.1,.25-1.49,.02l-5.6-3.39c-.39-.23-.35-.62,.09-.87l6.28-3.53c.43-.24,1.1-.25,1.48-.02l5.61,3.39c.39,.23,.35,.62-.08,.87Z"/>
        <path class="key" d="M143.42,157.11l-6.29,3.54c-.43,.24-1.1,.25-1.49,.02l-5.61-3.39c-.39-.23-.35-.62,.08-.86l6.28-3.54c.43-.24,1.1-.25,1.49-.02l5.62,3.38c.39,.23,.35,.62-.08,.87Z"/>
        <path class="key" d="M153.55,151.4l-6.29,3.54c-.43,.24-1.1,.25-1.49,.02l-5.63-3.38c-.39-.23-.35-.62,.08-.86l6.28-3.54c.43-.24,1.1-.25,1.49-.02l5.64,3.37c.39,.23,.35,.62-.08,.87Z"/>
        <path class="key" d="M163.86,145.6l-6.29,3.54c-.43,.24-1.1,.25-1.49,.02l-5.64-3.37c-.39-.23-.35-.62,.08-.86l6.28-3.54c.43-.24,1.1-.25,1.49-.02l5.65,3.37c.39,.23,.36,.62-.08,.86Z"/>
        <path class="key" d="M174.08,139.84l-6.29,3.54c-.43,.24-1.1,.25-1.49,.02l-5.66-3.37c-.39-.23-.35-.62,.08-.86l6.28-3.54c.43-.24,1.1-.25,1.49-.02l5.67,3.36c.39,.23,.36,.62-.08,.86Z"/>
        <path class="key" d="M84.02,204.2l-6.29,3.54c-.43,.24-1.1,.25-1.48,.01l-5.55-3.45c-.38-.24-.34-.63,.09-.87l6.28-3.54c.43-.24,1.1-.25,1.48-.01l5.56,3.45c.38,.24,.34,.63-.09,.87Z"/>
        <path class="key" d="M94.24,198.44l-6.3,3.54c-.43,.24-1.1,.25-1.48,.01l-5.56-3.45c-.38-.24-.34-.63,.09-.87l6.29-3.54c.43-.24,1.1-.25,1.48-.01l5.57,3.44c.39,.24,.34,.63-.09,.87Z"/>
        <path class="key" d="M104.56,192.63l-6.3,3.54c-.43,.24-1.1,.25-1.48,.01l-5.57-3.44c-.38-.24-.34-.63,.09-.87l6.29-3.54c.43-.24,1.1-.25,1.48-.01l5.59,3.43c.39,.24,.35,.63-.09,.87Z"/>
        <path class="key" d="M114.8,186.87l-6.3,3.55c-.43,.24-1.1,.25-1.49,.01l-5.59-3.43c-.39-.24-.35-.63,.09-.87l6.29-3.54c.43-.24,1.1-.25,1.49-.01l5.6,3.43c.39,.24,.35,.63-.09,.87Z"/>
        <path class="key" d="M127.66,179.63l-9.11,5.13c-.51,.29-1.3,.3-1.76,.02l-5.35-3.27c-.46-.28-.41-.74,.1-1.03l9.09-5.12c.51-.29,1.3-.3,1.76-.02l5.36,3.26c.46,.28,.41,.74-.1,1.03Z"/>
        <path class="key" d="M134.51,175.78l-6.3,3.55c-.44,.24-1.1,.25-1.49,.02l-5.62-3.42c-.39-.24-.35-.63,.09-.87l6.29-3.54c.43-.24,1.1-.25,1.49-.02l5.63,3.41c.39,.24,.35,.63-.08,.87Z"/>
        <path class="key" d="M144.72,170.03l-9.95,5.6c-.53,.3-1.35,.31-1.83,.02l-5.3-3.22c-.48-.29-.43-.77,.1-1.07l9.93-5.59c.53-.3,1.35-.31,1.83-.02l5.32,3.21c.48,.29,.43,.77-.1,1.07Z"/>
        <path class="key" d="M155.09,164.19l-6.31,3.55c-.44,.25-1.1,.25-1.49,.02l-5.64-3.41c-.39-.23-.35-.62,.08-.87l6.3-3.54c.43-.24,1.1-.25,1.49-.02l5.66,3.4c.39,.24,.36,.62-.08,.87Z"/>
        <path class="key" d="M165.25,158.47l-6.31,3.55c-.44,.25-1.11,.25-1.5,.02l-5.66-3.4c-.39-.23-.35-.62,.08-.87l6.3-3.55c.43-.24,1.1-.25,1.49-.02l5.67,3.39c.39,.23,.36,.62-.08,.87Z"/>
        <path class="key" d="M175.59,152.65l-6.31,3.55c-.44,.25-1.11,.25-1.5,.02l-5.67-3.39c-.39-.23-.36-.62,.08-.87l6.3-3.55c.43-.24,1.11-.25,1.5-.02l5.68,3.39c.39,.23,.36,.62-.08,.87Z"/>
        <path class="key" d="M185.85,146.88l-6.31,3.55c-.44,.25-1.11,.25-1.5,.02l-5.69-3.38c-.39-.23-.36-.62,.08-.87l6.3-3.55c.44-.24,1.11-.25,1.5-.02l5.7,3.38c.39,.23,.36,.62-.08,.87Z"/>
        <path class="key" d="M37.83,175.54l-6.82,3.84c-.27,.15-.67,.15-.9,0l-1.75-1.09c-.23-.14-.2-.38,.06-.53l6.81-3.84c.27-.15,.67-.15,.9,0l1.75,1.09c.23,.14,.21,.38-.06,.53Z"/>
        <path class="key" d="M47.94,169.84l-6.82,3.84c-.27,.15-.67,.15-.9,0l-1.75-1.09c-.23-.14-.21-.38,.06-.53l6.81-3.84c.27-.15,.67-.15,.9-.01l1.76,1.09c.23,.14,.21,.38-.06,.53Z"/>
        <path class="key" d="M58.13,164.09l-6.82,3.84c-.27,.15-.67,.15-.9,.01l-1.76-1.09c-.23-.14-.21-.38,.06-.53l6.82-3.84c.27-.15,.67-.15,.9-.01l1.76,1.08c.23,.14,.21,.38-.06,.53Z"/>
        <path class="key" d="M68.25,158.39l-6.82,3.84c-.27,.15-.67,.15-.9,.01l-1.76-1.08c-.23-.14-.21-.38,.06-.53l6.82-3.84c.27-.15,.67-.15,.9-.01l1.77,1.08c.23,.14,.21,.38-.06,.53Z"/>
        <path class="key" d="M77.99,152.9l-6.82,3.85c-.27,.15-.67,.15-.9,.01l-1.77-1.08c-.23-.14-.21-.38,.06-.53l6.82-3.84c.27-.15,.67-.16,.9-.01l1.77,1.08c.23,.14,.21,.38-.06,.53Z"/>
        <path class="key" d="M87.74,147.41l-6.83,3.85c-.27,.15-.67,.16-.91,.01l-1.77-1.08c-.23-.14-.21-.38,.06-.53l6.82-3.84c.27-.15,.67-.16,.91-.01l1.78,1.08c.23,.14,.21,.38-.06,.53Z"/>
        <path class="key" d="M97.94,141.66l-6.83,3.85c-.27,.15-.67,.16-.91,.01l-1.78-1.08c-.23-.14-.21-.38,.06-.53l6.82-3.85c.27-.15,.67-.16,.91-.01l1.78,1.08c.24,.14,.21,.38-.05,.53Z"/>
        <path class="key" d="M108.07,135.95l-6.83,3.85c-.27,.15-.67,.16-.91,.01l-1.78-1.07c-.24-.14-.21-.38,.05-.53l6.83-3.85c.27-.15,.67-.16,.91-.01l1.78,1.07c.24,.14,.21,.38-.05,.53Z"/>
        <path class="key" d="M118.12,130.29l-6.83,3.85c-.27,.15-.67,.16-.91,.01l-1.79-1.07c-.24-.14-.21-.38,.05-.53l6.83-3.85c.27-.15,.67-.16,.91-.01l1.79,1.07c.24,.14,.21,.38-.05,.53Z"/>
        <path class="key" d="M128.34,124.53l-6.83,3.85c-.27,.15-.67,.16-.91,.01l-1.79-1.07c-.24-.14-.21-.38,.05-.53l6.83-3.85c.27-.15,.67-.16,.91-.02l1.79,1.07c.24,.14,.21,.38-.05,.53Z"/>
        <path class="key" d="M138.47,118.81l-6.84,3.85c-.27,.15-.67,.16-.91,.02l-1.79-1.07c-.24-.14-.21-.38,.05-.53l6.83-3.85c.27-.15,.67-.16,.91-.02l1.8,1.07c.24,.14,.22,.38-.05,.53Z"/>
        <path class="trackpad" d="M176.57,186.05l-31.46,17.69c-2.52,1.42-6.38,1.44-8.63,.06l-14.23-8.73c-2.23-1.37-2.01-3.62,.49-5.03l31.28-17.6c2.51-1.41,6.36-1.45,8.62-.1l14.37,8.66c2.27,1.37,2.07,3.63-.45,5.04Z"/>
      </g>
    </g>
  </g>
  <g id="monitor"> 
    <path id="rim" class="screen" d="M139.05,105.81L7.79,180.4c-2.22,1.26-4.03,.23-4.05-2.31l-.57-93.58c-.02-2.51,1.76-5.57,3.97-6.83L137.65,3.05c2.23-1.27,4.06-.27,4.09,2.24l1.3,93.61c.04,2.54-1.75,5.63-3.99,6.9Z"/>
  </g>
  <g id="screen">
    <g id="logo">
      <path class="schreib-text-background" d="M132.26,79.94L15.83,146.22c-1.33,.76-2.42,.14-2.43-1.38l-.26-38.52c-.01-1.52,1.06-3.36,2.39-4.12L131.68,35.91c1.34-.77,2.45-.16,2.47,1.36l.52,38.53c.02,1.52-1.05,3.38-2.4,4.15Z"/>
      <polygon id="blink" class="schreib-text" points="125.11 77.04 115.04 82.77 114.73 56.97 124.78 51.24 125.11 77.04">
      <animate
        attributeName="fill"
        values="#e6f6eb;transparent"
        begin="0s"
        dur="2s"
        calcMode="discrete"
        repeatCount="indefinite"/>
      </polygon>
      <g>
        <path class="schreib-text" d="M30.49,112.6v.81l-2.82,2.42v-1.61c-.01-.23-.08-.38-.22-.46-.14-.08-.31-.06-.5,.05s-.37,.29-.5,.52c-.14,.23-.2,.46-.2,.69l.02,2.42c0,.23,.07,.38,.21,.46,.14,.08,.31,.06,.5-.05,.98-.56,1.82-.64,2.51-.25,.69,.39,1.05,1.15,1.05,2.27l.02,2.42c0,1.12-.33,2.27-1.01,3.45-.68,1.18-1.52,2.05-2.5,2.61s-1.82,.64-2.51,.25c-.69-.39-1.05-1.15-1.05-2.27v-.81l2.82-2.42v1.61c.01,.23,.08,.38,.22,.46,.14,.08,.31,.06,.5-.05s.37-.29,.5-.52c.14-.23,.2-.46,.2-.69l-.02-2.42c0-.23-.07-.38-.21-.46-.14-.08-.31-.06-.5,.05-.98,.56-1.82,.64-2.51,.25-.69-.39-1.05-1.15-1.05-2.27l-.02-2.42c0-1.12,.33-2.26,1.01-3.44,.68-1.18,1.51-2.04,2.49-2.6s1.82-.64,2.51-.25c.69,.39,1.05,1.15,1.05,2.26Z"/>
        <path class="schreib-text" d="M36.23,119.05v-1.61l2.83-.81v.81c.02,1.12-.32,2.27-1,3.45-.68,1.18-1.52,2.05-2.5,2.61s-1.82,.64-2.52,.25c-.7-.39-1.05-1.15-1.06-2.27l-.07-9.68c0-1.12,.33-2.26,1.01-3.44,.68-1.18,1.51-2.04,2.5-2.6s1.82-.64,2.51-.25c.7,.39,1.05,1.15,1.06,2.26v.81l-2.82,2.42v-1.61c-.01-.23-.08-.38-.22-.46-.14-.08-.31-.06-.5,.05s-.37,.29-.5,.52c-.14,.23-.2,.46-.2,.69l.08,9.68c0,.23,.07,.38,.21,.46,.14,.08,.31,.06,.5-.05s.37-.29,.5-.52c.14-.23,.2-.46,.2-.69Z"/>
        <path class="schreib-text" d="M47.49,102.91l.12,13.71-2.84,1.62-.12-13.71c0-.23-.07-.38-.21-.46-.14-.08-.31-.06-.5,.05s-.37,.29-.5,.52c-.14,.23-.2,.46-.2,.69l.11,13.71-2.83,1.61-.18-22.57,2.83-1.61,.04,4.91c.23-.18,.46-.34,.71-.48,.98-.56,1.82-.64,2.52-.25,.7,.39,1.05,1.15,1.06,2.26Z"/>
        <path class="schreib-text" d="M48.87,98.08l1.42-.81,.22,.49c.56-.73,1.2-1.3,1.91-1.7,.98-.56,1.82-.65,2.52-.25,.7,.39,1.05,1.15,1.06,2.26v.81l-2.82,2.42v-1.61c-.02-.23-.09-.38-.22-.46-.14-.08-.31-.06-.51,.05s-.37,.29-.5,.52c-.14,.23-.2,.46-.2,.69l.12,13.71-2.84,1.62-.15-17.74Z"/>
        <path class="schreib-text" d="M57.41,97.26c-.01-1.12,.33-2.26,1.01-3.44,.68-1.18,1.52-2.05,2.5-2.61s1.82-.65,2.52-.25c.7,.39,1.05,1.14,1.06,2.26l.06,6.45-4.26,2.43,.03,3.23c0,.23,.07,.38,.21,.46,.14,.08,.31,.06,.51-.05s.37-.29,.5-.52c.14-.23,.2-.46,.2-.69l-.02-1.61,2.85-.81v.81c.02,1.12-.32,2.27-1,3.45-.68,1.18-1.52,2.05-2.5,2.61s-1.83,.64-2.52,.25c-.7-.39-1.05-1.15-1.06-2.27l-.09-9.68Zm4.25-2.43c0-.23-.07-.38-.21-.45-.14-.08-.31-.06-.51,.05s-.37,.29-.5,.52c-.14,.23-.2,.46-.2,.69l.03,3.22,1.42-.81-.03-3.22Z"/>
        <path class="schreib-text" d="M65.86,86.76l-.03-3.22,2.84-1.62,.03,3.22-2.84,1.62Zm2.85,0l.17,17.74-2.84,1.62-.17-17.74,2.84-1.62Z"/>
        <path class="schreib-text" d="M72.97,84.41c.23-.18,.46-.34,.71-.49,.98-.56,1.83-.65,2.52-.26,.7,.39,1.05,1.14,1.07,2.26l.1,9.68c.01,1.12-.32,2.27-1.01,3.45-.68,1.18-1.52,2.05-2.5,2.61-.71,.4-1.35,.56-1.92,.48l-.21,.73-1.42,.81-.22-22.57,2.84-1.62,.05,4.91Zm1.46,3.14c0-.23-.07-.38-.21-.45s-.31-.06-.51,.05-.37,.29-.5,.52-.2,.46-.2,.69l.1,9.68c0,.23,.07,.38,.21,.46s.31,.06,.51-.05,.37-.29,.5-.52,.2-.46,.2-.69l-.1-9.68Z"/>
        <path class="root-symbol" d="M78.73,89.15l-.03-3.22c1.41-1.88,2.83-2.69,4.26-2.43s2.85-.54,4.26-2.43l.03,3.22c-1.41,1.89-2.83,2.69-4.26,2.43s-2.85,.54-4.26,2.43Z"/>
        <path class="root-symbol" d="M96.33,64.53l-5.26,28.96-2.99,1.7,5.26-28.96,2.98-1.7Z"/>
        <path class="root-symbol" d="M99.19,64.84l-.02-1.93,2.84-1.62,.02,1.93c.4-.03,.77,.04,1.1,.23,.7,.39,1.06,1.14,1.07,2.26l.02,1.61-2.83,2.43-.03-2.42c0-.23-.07-.38-.21-.45s-.31-.06-.51,.05-.37,.29-.5,.52-.2,.46-.2,.69l.06,4.83c0,.23,.07,.38,.21,.45s.31,.06,.51-.05c.99-.56,1.83-.65,2.53-.26s1.06,1.14,1.07,2.26l.06,4.84c.01,1.12-.32,2.27-1.01,3.45-.33,.57-.69,1.06-1.09,1.48l.02,1.94-2.85,1.62-.02-1.94c-.4,.03-.77-.04-1.11-.23-.7-.39-1.06-1.15-1.07-2.27l-.02-1.61,2.84-2.43,.03,2.42c0,.23,.07,.38,.21,.46s.31,.06,.51-.05,.37-.29,.5-.52,.2-.46,.2-.69l-.06-4.84c0-.23-.07-.38-.21-.45s-.31-.06-.51,.05c-.99,.56-1.83,.65-2.53,.26s-1.06-1.14-1.07-2.26l-.05-4.83c-.01-1.12,.32-2.26,1.01-3.44,.33-.56,.69-1.06,1.08-1.48Z"/>
      </g>
    </g>
  </g>
</svg>